{
	"asset":{
		"generator":"Khronos glTF Blender I/O v4.0.44",
		"version":"2.0"
	},
	"scene":0,
	"scenes":[
		{
			"name":"Scene",
			"nodes":[
				0
			]
		}
	],
	"nodes":[
		{
			"mesh":0,
			"name":"Chlorophytum_Comosum_03",
			"scale":[
				0.009999999776482582,
				0.009999999776482582,
				0.009999999776482582
			]
		}
	],
	"materials":[
		{
			"alphaCutoff":0.5,
			"alphaMode":"MASK",
			"doubleSided":true,
			"name":"Chlorophytum_Comosum_01",
			"pbrMetallicRoughness":{}
		},
		{
			"alphaCutoff":0.5,
			"alphaMode":"MASK",
			"doubleSided":true,
			"name":"Chlorophytum_Comosum_02",
			"pbrMetallicRoughness":{}
		},
		{
			"alphaCutoff":0.5,
			"alphaMode":"MASK",
			"doubleSided":true,
			"name":"Chlorophytum_Comosum_03",
			"pbrMetallicRoughness":{}
		}
	],
	"meshes":[
		{
			"name":"Chlorophytum_Comosum_03_high",
			"primitives":[
				{
					"attributes":{
						"POSITION":0,
						"NORMAL":1,
						"TEXCOORD_0":2
					},
					"indices":3,
					"material":0
				},
				{
					"attributes":{
						"POSITION":4,
						"NORMAL":5,
						"TEXCOORD_0":6
					},
					"indices":7,
					"material":1
				},
				{
					"attributes":{
						"POSITION":8,
						"NORMAL":9,
						"TEXCOORD_0":10
					},
					"indices":11,
					"material":2
				}
			]
		}
	],
	"accessors":[
		{
			"bufferView":0,
			"componentType":5126,
			"count":2184,
			"max":[
				25.470054626464844,
				18.93357276916504,
				26.46367073059082
			],
			"min":[
				-14.847095489501953,
				-0.08487510681152344,
				-22.67708396911621
			],
			"type":"VEC3"
		},
		{
			"bufferView":1,
			"componentType":5126,
			"count":2184,
			"type":"VEC3"
		},
		{
			"bufferView":2,
			"componentType":5126,
			"count":2184,
			"type":"VEC2"
		},
		{
			"bufferView":3,
			"componentType":5123,
			"count":6312,
			"type":"SCALAR"
		},
		{
			"bufferView":4,
			"componentType":5126,
			"count":1586,
			"max":[
				17.088336944580078,
				20.806411743164062,
				21.332372665405273
			],
			"min":[
				-16.844356536865234,
				-0.08148193359375,
				-25.155569076538086
			],
			"type":"VEC3"
		},
		{
			"bufferView":5,
			"componentType":5126,
			"count":1586,
			"type":"VEC3"
		},
		{
			"bufferView":6,
			"componentType":5126,
			"count":1586,
			"type":"VEC2"
		},
		{
			"bufferView":7,
			"componentType":5123,
			"count":4578,
			"type":"SCALAR"
		},
		{
			"bufferView":8,
			"componentType":5126,
			"count":1260,
			"max":[
				13.373876571655273,
				20.987581253051758,
				13.511744499206543
			],
			"min":[
				-9.795071601867676,
				-0.04541587829589844,
				-18.461078643798828
			],
			"type":"VEC3"
		},
		{
			"bufferView":9,
			"componentType":5126,
			"count":1260,
			"type":"VEC3"
		},
		{
			"bufferView":10,
			"componentType":5126,
			"count":1260,
			"type":"VEC2"
		},
		{
			"bufferView":11,
			"componentType":5123,
			"count":3636,
			"type":"SCALAR"
		}
	],
	"bufferViews":[
		{
			"buffer":0,
			"byteLength":26208,
			"byteOffset":0,
			"target":34962
		},
		{
			"buffer":0,
			"byteLength":26208,
			"byteOffset":26208,
			"target":34962
		},
		{
			"buffer":0,
			"byteLength":17472,
			"byteOffset":52416,
			"target":34962
		},
		{
			"buffer":0,
			"byteLength":12624,
			"byteOffset":69888,
			"target":34963
		},
		{
			"buffer":0,
			"byteLength":19032,
			"byteOffset":82512,
			"target":34962
		},
		{
			"buffer":0,
			"byteLength":19032,
			"byteOffset":101544,
			"target":34962
		},
		{
			"buffer":0,
			"byteLength":12688,
			"byteOffset":120576,
			"target":34962
		},
		{
			"buffer":0,
			"byteLength":9156,
			"byteOffset":133264,
			"target":34963
		},
		{
			"buffer":0,
			"byteLength":15120,
			"byteOffset":142420,
			"target":34962
		},
		{
			"buffer":0,
			"byteLength":15120,
			"byteOffset":157540,
			"target":34962
		},
		{
			"buffer":0,
			"byteLength":10080,
			"byteOffset":172660,
			"target":34962
		},
		{
			"buffer":0,
			"byteLength":7272,
			"byteOffset":182740,
			"target":34963
		}
	],
	"buffers":[
		{
			"byteLength":190012,
			"uri":"defaultModel.bin"
		}
	]
}
